<svg width="100" height="100" viewBox="0 0 100 100" fill="none" xmlns="http://www.w3.org/2000/svg">
<path fill-rule="evenodd" clip-rule="evenodd" d="M1.29074 64.5921L20.9609 39.1639L26.3422 41.9187L39.1465 22L47.1256 31.1121L50.095 28.781L61.5999 42.7665L69.765 33.4426L92.5894 64.5921L70.6 38.1048L67.2596 49.2295L70.3215 58.0235L50.6514 32.0655L50.4385 40.9224L61.5999 64.5921L40.7234 27.9331L46.7546 47.7462L38.3116 28.4629L33.6723 41.2832L34.5997 32.9128L23.0018 63.1088L24.3932 50.3947L19.5687 45.3095L1.29074 64.5921Z" fill="#011C40"/>
<path fill-rule="evenodd" clip-rule="evenodd" d="M99.202 68.5692C68.0586 44.4805 19.5844 77.5974 0 64.8262C21.5319 82.9242 71.8599 52.3302 99.202 68.5692Z" fill="#011C40"/>
<path fill-rule="evenodd" clip-rule="evenodd" d="M100 70.4636C75.5652 55.5497 39.224 76.3042 20.5984 71.4981C40.7809 80.8808 78.3546 60.0914 100 70.4636Z" fill="#011C40"/>
</svg>
