<svg style="display: none" xmlns="http://www.w3.org/2000/svg">
  <symbol viewBox="0 0 20 20" id="alien">
    <path d="M11.945 0c-.641 0-1.243.325-1.629.795-.386.469-.599 1.04-.754 1.643-.246.97-.322 2.045-.34 3.014-1.803.12-3.435.654-4.79 1.48-.55-.463-1.213-.72-1.848-.713-.724.007-1.41.319-1.921.96C-.313 8.4-.201 10.4.93 11.588a6.01 6.01 0 0 0-.122 1.123C.808 16.74 4.924 20 10 20c5.076 0 9.192-3.264 9.192-7.288 0-.38-.052-.756-.122-1.123 1.13-1.188 1.243-3.188.267-4.41-.51-.641-1.197-.953-1.92-.96-.636-.007-1.298.25-1.849.713-1.35-.822-2.972-1.357-4.766-1.48.025-.894.089-1.822.268-2.52.112-.439.246-.757.389-.932.143-.175.246-.247.486-.247.52 0 .587.168.9.576.158.205.34.462.632.712.292.25.724.466 1.192.466V1.753c-.131 0-.155-.003-.243-.082-.089-.079-.21-.26-.39-.493C13.678.708 12.982 0 11.947 0Zm5.058.164c-1.21 0-2.188 1.103-2.188 2.466 0 1.363.978 2.466 2.188 2.466 1.21 0 2.189-1.103 2.189-2.466 0-1.363-.98-2.466-2.189-2.466Zm0 .877c.778 0 1.41.712 1.41 1.59 0 .876-.632 1.588-1.41 1.588-.778 0-1.41-.712-1.41-1.589s.632-1.589 1.41-1.589ZM10 6.821c4.307 0 7.951 2.703 7.951 5.891 0 3.192-3.644 5.89-7.951 5.89-4.307 0-7.951-2.698-7.951-5.89 0-3.188 3.644-5.89 7.951-5.89Zm-7.392.795c.216.004.44.059.656.165-.78.668-1.4 1.435-1.823 2.301-.292-.678-.213-1.524.146-1.972a1.263 1.263 0 0 1 1.02-.494Zm14.784 0c.398-.003.76.165 1.021.494.36.448.438 1.294.146 1.972-.422-.866-1.042-1.633-1.823-2.301a1.55 1.55 0 0 1 .656-.165ZM6.888 9.808c-.779 0-1.41.713-1.41 1.59 0 .876.631 1.588 1.41 1.588.778 0 1.41-.712 1.41-1.589s-.632-1.589-1.41-1.589Zm6.225 0c-.779 0-1.41.713-1.41 1.59 0 .876.631 1.588 1.41 1.588.778 0 1.41-.712 1.41-1.589s-.632-1.589-1.41-1.589Zm-6.98 5.398C6.63 16.36 8.162 17.48 10 17.48s3.395-1.12 3.89-2.274c-.9.654-2.319 1.095-3.89 1.095-1.571 0-2.967-.441-3.866-1.095Z"/>
  </symbol>
  <symbol viewBox="0 0 24 14" id="burger">
    <path d="M0 1h24M0 7h24M0 13h24"/>
  </symbol>
  <symbol viewBox="0 0 12 20" id="classmates">
    <path d="M5.875 3.025c1.196 0 2.168.96 2.168 2.138 0 1.175-.972 2.134-2.168 2.134-1.196 0-2.168-.958-2.168-2.134 0-1.179.972-2.138 2.168-2.138Zm0 7.298c2.888 0 5.237-2.316 5.237-5.16C11.112 2.315 8.763 0 5.875 0S.642 2.315.642 5.163c0 2.844 2.345 5.16 5.233 5.16Zm2.118 4.211a9.95 9.95 0 0 0 3.04-1.243 1.5 1.5 0 0 0 .482-2.084 1.545 1.545 0 0 0-2.118-.476 6.733 6.733 0 0 1-7.048 0 1.54 1.54 0 0 0-2.114.476 1.5 1.5 0 0 0 .483 2.084 9.95 9.95 0 0 0 3.04 1.243L.828 17.418a1.498 1.498 0 0 0 0 2.137 1.547 1.547 0 0 0 2.172 0l2.874-2.833 2.878 2.833a1.543 1.543 0 0 0 2.168 0 1.498 1.498 0 0 0 0-2.137l-2.928-2.884Z"/>
  </symbol>
  <symbol viewBox="0 0 15 15" id="cross">
    <path d="m1 1 6.5 6.5M14 14 7.5 7.5m0 0L14 1 1 14"/>
  </symbol>
  <symbol viewBox="0 0 38 32" id="double-tick">
    <path d="M28.75 3.38 26.44 0 16.07 15.14l2.32 3.37L28.75 3.38ZM35.7 0 18.38 25.25l-6.82-9.95-2.31 3.38L18.38 32 38 3.38 35.7 0ZM0 18.68 9.13 32l2.32-3.38L2.3 15.3 0 18.68Z" fill="#011C40"/>
  </symbol>
  <symbol viewBox="0 0 70 38" id="iceberg-logo">
    <path fill-rule="evenodd" clip-rule="evenodd" d="m.9 31.13 13.77-18.59 3.77 2.02L27.4 0 33 6.66l2.08-1.7 8.05 10.22 5.72-6.82L64.8 31.13 49.42 11.77l-2.34 8.13 2.15 6.42L35.45 7.36l-.15 6.47 7.81 17.3-14.61-26.8 4.22 14.48-5.91-14.09-3.25 9.37.65-6.12-8.12 22.07.98-9.29-3.38-3.72L.9 31.13Z"/>
    <path fill-rule="evenodd" clip-rule="evenodd" d="M69.44 34.03C47.64 16.43 13.71 40.63 0 31.3c15.07 13.22 50.3-9.14 69.44 2.73Z"/>
    <path fill-rule="evenodd" clip-rule="evenodd" d="M70 35.42c-17.1-10.9-42.54 4.26-55.58.75 14.13 6.86 40.43-8.33 55.58-.75Z"/>
  </symbol>
  <symbol viewBox="0 0 27 32" id="little-ship">
    <path d="m4.4 16.4 8.82-6.46a.6.6 0 0 1 .65 0l8.86 6.46V8.69a1.9 1.9 0 0 0-1.84-2H6.24a1.9 1.9 0 0 0-1.83 2v7.7ZM15.75 0h-4.37v5.35h4.37V0Z" fill="#011C40"/><path d="m24.3 30.16 2.7-9.13-3.8-2.72-.26-.13L14 11.8v18.8h-.48l-.83-.05V11.81L0 21.03l2.8 9.09 1.6 1.87H13.52c1.3.02 3.6 0 3.6 0h5.7l1.48-1.83Z" fill="#011C40"/>
  </symbol>
  <symbol viewBox="0 0 18 22" id="mark">
    <path d="M15.364 15.5563L9 22L2.636 15.5563C1.37734 14.2819 0.520187 12.6581 0.172928 10.8905C-0.17433 9.12277 0.00390685 7.29051 0.685099 5.62539C1.36629 3.96027 2.51984 2.53707 3.99988 1.53576C5.47992 0.534448 7.21998 0 9 0C10.78 0 12.5201 0.534448 14.0001 1.53576C15.4802 2.53707 16.6337 3.96027 17.3149 5.62539C17.9961 7.29051 18.1743 9.12277 17.8271 10.8905C17.4798 12.6581 16.6227 14.2819 15.364 15.5563ZM9 11.1377C9.53044 11.1377 10.0391 10.9243 10.4142 10.5445C10.7893 10.1648 11 9.64969 11 9.11262C11 8.57554 10.7893 8.06047 10.4142 7.6807C10.0391 7.30093 9.53044 7.08757 9 7.08757C8.46957 7.08757 7.96086 7.30093 7.58579 7.6807C7.21072 8.06047 7 8.57554 7 9.11262C7 9.64969 7.21072 10.1648 7.58579 10.5445C7.96086 10.9243 8.46957 11.1377 9 11.1377Z"/>
  </symbol>
  <symbol viewBox="0 0 18 18" id="phone">
    <path d="M18 13.42v3.54a1 1 0 0 1-.93 1c-.44.02-.8.04-1.07.04A16 16 0 0 1 .05.93a1 1 0 0 1 1-.93h3.53a.5.5 0 0 1 .5.45A13.52 13.52 0 0 0 6.35 5c.1.2.03.44-.15.57L4.04 7.11a13.05 13.05 0 0 0 6.85 6.85l1.54-2.16a.46.46 0 0 1 .57-.15 13.9 13.9 0 0 0 4.55 1.27.5.5 0 0 1 .45.5Z"/>
  </symbol>
  <symbol viewBox="0 0 44 32" id="ship">
    <path d="m41.44 25.72-39.8-8.5c-.3-.07-.5.56-.35 1.06C3.84 26.33 9.86 32 16.87 32H40.6c.17 0 .3-.2.35-.5l.8-4.88c.07-.42-.08-.85-.31-.9ZM43.88 11.77c-.11-.34-.3-.57-.52-.63l-11-2.78c-.4-.1-.77.43-.82 1.2-.05.76.23 1.46.63 1.56l1.25.31c.18.05.31.34.31.7v2.14c0 .42-.19.74-.4.7l-2.94-.6c-.18-.04-.32-.34-.32-.7V7.6c0-.14.02-.27.06-.39l1.28-3.65c.15-.41.16-.95.05-1.4-.12-.44-.36-.73-.63-.76L15.43 0c-.24 0-.48.2-.63.58l-3.57 9.54c-.08.2-.2.31-.34.28L.81 8.36c-.2-.05-.41.08-.57.34C.1 8.97 0 9.34 0 9.74c0 1.34.1 2.65.26 3.93.04.28.17.48.32.52l41.43 8.85c.18.04.34-.16.4-.48l1.56-9.63c.06-.4.03-.82-.09-1.16Zm-22.72-7.7-.57 7.6c-.03.36-.2.63-.4.59l-6.8-1.35c-.28-.06-.42-.66-.26-1.1l2.52-6.69c.07-.19.19-.3.31-.29l4.86.44c.21.02.37.39.34.8Zm7.95 1-.45 1.29c-.04.11-.06.25-.06.39v6.48c0 .41-.19.74-.4.7l-5.83-1.2c-.2-.03-.35-.4-.32-.78l.6-7.88c.02-.35.19-.61.37-.6l5.8.53c.29.02.45.63.3 1.08Zm9.02 10.1c0 .41-.19.73-.4.69l-2.2-.48c-.2-.04-.33-.34-.33-.69v-2.01c0-.42.2-.75.42-.7l2.2.56c.18.05.31.35.31.7v1.93Zm4.05-.7-.27 1.67c-.05.32-.21.53-.39.5l-1.6-.33c-.18-.04-.32-.34-.32-.7V13.8c0-.42.2-.74.42-.69l1.86.47c.23.06.37.49.3.9Z" fill="#011C40"/>
  </symbol>
  <symbol viewBox="0 0 20 20" id="star">
    <path d="M19.56 9.56a.44.44 0 0 0 .44-.48A10.03 10.03 0 0 0 10.92 0a.44.44 0 0 0-.48.44c.08 6.4.93 9.03 9.12 9.12Zm0 .88c-8.2.1-9.04 2.71-9.11 9.12a.44.44 0 0 0 .47.44A10.03 10.03 0 0 0 20 10.92a.44.44 0 0 0-.44-.48ZM9.05 0C4.25.46.44 4.27 0 9.08a.44.44 0 0 0 .44.48c8.17-.1 9.01-2.71 9.09-9.12A.44.44 0 0 0 9.05 0ZM.45 10.44c-.14-.01-.25.05-.33.14a.44.44 0 0 0-.12.34A10.03 10.03 0 0 0 9.1 20a.44.44 0 0 0 .43-.44c-.08-6.4-.92-9.02-9.09-9.12Z"/>
  </symbol>
  <symbol viewBox="0 0 12 8" id="tick">
    <path d="M1 2.5 5.29 7 11 1" stroke="#101A56"/>
  </symbol>
</svg>
